<?xml version="1.0" encoding="UTF-8"?>
<svg xmlns="http://www.w3.org/2000/svg" xmlns:xlink="http://www.w3.org/1999/xlink" width="1920" height="1080" viewBox="0 0 1920 1080">
<defs>
<g>
<g id="glyph-0-0">
<path d="M 0.859375 0.101562 C 0.75 0.101562 0.652344 0.0546875 0.570312 -0.0429688 C 0.488281 -0.140625 0.433594 -0.261719 0.40625 -0.40625 C 0.382812 -0.550781 0.394531 -0.691406 0.449219 -0.832031 L 0.917969 -2.082031 C 0.957031 -2.175781 0.976562 -2.253906 0.980469 -2.316406 C 0.988281 -2.375 0.960938 -2.40625 0.902344 -2.40625 C 0.867188 -2.40625 0.808594 -2.367188 0.726562 -2.296875 C 0.640625 -2.222656 0.5625 -2.148438 0.484375 -2.066406 C 0.460938 -2.035156 0.441406 -2.019531 0.425781 -2.015625 C 0.410156 -2.011719 0.398438 -2.007812 0.390625 -2.007812 C 0.355469 -2.007812 0.339844 -2.019531 0.339844 -2.042969 C 0.339844 -2.074219 0.34375 -2.105469 0.359375 -2.136719 C 0.371094 -2.171875 0.390625 -2.210938 0.425781 -2.261719 C 0.511719 -2.382812 0.601562 -2.488281 0.691406 -2.582031 C 0.78125 -2.675781 0.863281 -2.753906 0.945312 -2.820312 C 1.027344 -2.886719 1.105469 -2.933594 1.171875 -2.96875 C 1.242188 -3.003906 1.304688 -3.019531 1.359375 -3.019531 C 1.398438 -3.019531 1.433594 -3.003906 1.464844 -2.976562 C 1.5 -2.945312 1.523438 -2.910156 1.542969 -2.871094 C 1.558594 -2.832031 1.558594 -2.785156 1.546875 -2.738281 L 0.894531 -0.859375 C 0.84375 -0.695312 0.835938 -0.5625 0.875 -0.460938 C 0.914062 -0.359375 0.992188 -0.3125 1.113281 -0.3125 C 1.285156 -0.3125 1.457031 -0.359375 1.621094 -0.457031 C 1.789062 -0.558594 1.9375 -0.691406 2.066406 -0.855469 C 2.195312 -1.023438 2.300781 -1.207031 2.375 -1.410156 C 2.453125 -1.609375 2.492188 -1.816406 2.492188 -2.023438 C 2.492188 -2.105469 2.476562 -2.1875 2.445312 -2.269531 C 2.414062 -2.351562 2.371094 -2.421875 2.320312 -2.484375 C 2.285156 -2.523438 2.261719 -2.5625 2.25 -2.601562 C 2.238281 -2.640625 2.230469 -2.679688 2.230469 -2.722656 C 2.230469 -2.765625 2.253906 -2.8125 2.296875 -2.855469 C 2.339844 -2.902344 2.394531 -2.941406 2.460938 -2.972656 C 2.523438 -3.003906 2.589844 -3.019531 2.65625 -3.019531 C 2.710938 -3.019531 2.757812 -2.976562 2.800781 -2.894531 C 2.84375 -2.8125 2.867188 -2.6875 2.867188 -2.519531 C 2.867188 -2.308594 2.84375 -2.097656 2.796875 -1.890625 C 2.753906 -1.683594 2.679688 -1.480469 2.582031 -1.28125 C 2.484375 -1.082031 2.351562 -0.886719 2.179688 -0.695312 C 1.953125 -0.429688 1.726562 -0.230469 1.5 -0.0976562 C 1.269531 0.0351562 1.058594 0.101562 0.859375 0.101562 Z "/>
</g>
<g id="glyph-0-1">
<path d="M 2.527344 0.953125 C 2.550781 0.953125 2.570312 0.964844 2.582031 0.984375 C 2.59375 1.007812 2.59375 1.03125 2.578125 1.054688 C 2.539062 1.117188 2.5 1.175781 2.457031 1.230469 C 2.414062 1.285156 2.359375 1.316406 2.296875 1.316406 L -0.765625 1.316406 C -0.789062 1.316406 -0.808594 1.304688 -0.820312 1.285156 C -0.832031 1.265625 -0.835938 1.246094 -0.832031 1.226562 C -0.820312 1.203125 -0.804688 1.171875 -0.78125 1.125 C -0.757812 1.082031 -0.726562 1.042969 -0.695312 1.007812 C -0.660156 0.972656 -0.625 0.953125 -0.585938 0.953125 Z "/>
</g>
<g id="glyph-0-2">
<path d="M -0.773438 2.066406 C -0.796875 2.066406 -0.820312 2.0625 -0.847656 2.050781 C -0.875 2.042969 -0.886719 2.023438 -0.886719 2 C -0.886719 1.960938 -0.863281 1.929688 -0.8125 1.902344 C -0.761719 1.875 -0.714844 1.859375 -0.671875 1.855469 C -0.570312 1.835938 -0.492188 1.808594 -0.433594 1.777344 C -0.375 1.742188 -0.328125 1.679688 -0.296875 1.589844 L 1.097656 -2.304688 C 1.121094 -2.371094 1.136719 -2.421875 1.140625 -2.457031 C 1.144531 -2.488281 1.140625 -2.511719 1.121094 -2.523438 C 1.101562 -2.535156 1.066406 -2.539062 1.019531 -2.527344 C 0.902344 -2.507812 0.804688 -2.488281 0.71875 -2.464844 C 0.632812 -2.445312 0.542969 -2.410156 0.441406 -2.363281 C 0.402344 -2.34375 0.367188 -2.339844 0.335938 -2.351562 C 0.304688 -2.363281 0.289062 -2.382812 0.289062 -2.414062 C 0.289062 -2.453125 0.300781 -2.480469 0.320312 -2.507812 C 0.34375 -2.53125 0.367188 -2.550781 0.398438 -2.5625 C 0.476562 -2.601562 0.585938 -2.65625 0.730469 -2.722656 C 0.875 -2.789062 1.042969 -2.847656 1.234375 -2.894531 C 1.269531 -2.90625 1.296875 -2.917969 1.316406 -2.9375 C 1.339844 -2.953125 1.355469 -2.976562 1.363281 -3.011719 C 1.433594 -3.238281 1.496094 -3.402344 1.554688 -3.503906 C 1.609375 -3.605469 1.691406 -3.65625 1.796875 -3.65625 C 1.835938 -3.65625 1.871094 -3.644531 1.898438 -3.617188 C 1.929688 -3.59375 1.9375 -3.5625 1.929688 -3.515625 L 1.804688 -3.097656 C 1.789062 -3.050781 1.789062 -3.015625 1.796875 -2.992188 C 1.808594 -2.972656 1.824219 -2.964844 1.839844 -2.96875 C 1.902344 -2.976562 1.960938 -2.984375 2.011719 -2.988281 C 2.0625 -2.996094 2.113281 -2.996094 2.160156 -2.996094 C 2.402344 -2.996094 2.589844 -2.957031 2.726562 -2.878906 C 2.863281 -2.800781 2.960938 -2.691406 3.015625 -2.554688 C 3.070312 -2.417969 3.097656 -2.261719 3.097656 -2.09375 C 3.097656 -1.863281 3.046875 -1.621094 2.941406 -1.367188 C 2.835938 -1.117188 2.691406 -0.878906 2.511719 -0.652344 C 2.328125 -0.429688 2.128906 -0.246094 1.902344 -0.109375 C 1.679688 0.03125 1.445312 0.101562 1.207031 0.101562 C 1.164062 0.101562 1.113281 0.0859375 1.0625 0.0585938 C 1.007812 0.0273438 0.957031 0 0.910156 -0.0273438 C 0.867188 -0.0585938 0.832031 -0.0664062 0.804688 -0.0546875 C 0.777344 -0.0429688 0.75 0.0078125 0.714844 0.101562 L 0.238281 1.507812 C 0.203125 1.609375 0.214844 1.6875 0.269531 1.738281 C 0.324219 1.789062 0.414062 1.816406 0.535156 1.828125 C 0.582031 1.832031 0.628906 1.839844 0.679688 1.855469 C 0.726562 1.871094 0.75 1.898438 0.75 1.9375 C 0.75 1.964844 0.730469 1.984375 0.6875 1.996094 C 0.644531 2.007812 0.59375 2.015625 0.542969 2.015625 C 0.46875 2.015625 0.394531 2.015625 0.316406 2.011719 C 0.242188 2.007812 0.167969 2.007812 0.105469 2.007812 C 0.0390625 2.007812 -0.015625 2.011719 -0.0585938 2.015625 C -0.179688 2.03125 -0.296875 2.042969 -0.40625 2.050781 C -0.519531 2.0625 -0.644531 2.066406 -0.773438 2.066406 Z M 1.34375 -0.144531 C 1.453125 -0.144531 1.578125 -0.207031 1.71875 -0.328125 C 1.859375 -0.453125 1.992188 -0.609375 2.121094 -0.800781 C 2.246094 -0.992188 2.351562 -1.199219 2.4375 -1.414062 C 2.523438 -1.632812 2.5625 -1.835938 2.5625 -2.03125 C 2.5625 -2.300781 2.515625 -2.480469 2.417969 -2.578125 C 2.324219 -2.675781 2.1875 -2.726562 2.015625 -2.730469 C 1.972656 -2.730469 1.929688 -2.730469 1.886719 -2.730469 C 1.84375 -2.730469 1.792969 -2.726562 1.742188 -2.714844 L 1.078125 -0.765625 C 1.046875 -0.679688 1.03125 -0.597656 1.027344 -0.523438 C 1.027344 -0.449219 1.035156 -0.386719 1.054688 -0.332031 C 1.078125 -0.269531 1.113281 -0.222656 1.160156 -0.191406 C 1.207031 -0.160156 1.265625 -0.144531 1.34375 -0.144531 Z "/>
</g>
<g id="glyph-0-3">
<path d="M 0.40625 0.128906 C 0.382812 0.128906 0.359375 0.121094 0.339844 0.101562 C 0.320312 0.0820312 0.304688 0.0585938 0.296875 0.0273438 C 0.285156 0 0.28125 -0.0273438 0.28125 -0.0585938 C 0.28125 -0.128906 0.289062 -0.203125 0.308594 -0.273438 C 0.324219 -0.347656 0.347656 -0.4375 0.375 -0.542969 L 1.394531 -4.03125 C 1.417969 -4.113281 1.441406 -4.203125 1.464844 -4.300781 C 1.488281 -4.398438 1.503906 -4.472656 1.503906 -4.519531 C 1.503906 -4.570312 1.472656 -4.605469 1.410156 -4.628906 C 1.351562 -4.652344 1.292969 -4.675781 1.234375 -4.695312 C 1.199219 -4.703125 1.171875 -4.714844 1.144531 -4.726562 C 1.117188 -4.738281 1.105469 -4.753906 1.105469 -4.773438 C 1.105469 -4.792969 1.113281 -4.8125 1.125 -4.828125 C 1.140625 -4.84375 1.175781 -4.863281 1.226562 -4.882812 C 1.265625 -4.898438 1.320312 -4.917969 1.390625 -4.941406 C 1.460938 -4.964844 1.535156 -4.988281 1.613281 -5.015625 C 1.695312 -5.042969 1.765625 -5.0625 1.832031 -5.082031 C 1.894531 -5.097656 1.941406 -5.105469 1.964844 -5.105469 C 1.988281 -5.105469 2.015625 -5.105469 2.042969 -5.097656 C 2.074219 -5.09375 2.085938 -5.074219 2.085938 -5.035156 C 2.085938 -4.996094 2.082031 -4.960938 2.078125 -4.933594 C 2.070312 -4.90625 2.0625 -4.871094 2.050781 -4.839844 L 1.070312 -1.445312 C 1.058594 -1.410156 1.058594 -1.394531 1.074219 -1.394531 C 1.085938 -1.394531 1.097656 -1.402344 1.113281 -1.421875 C 1.324219 -1.734375 1.542969 -2.015625 1.769531 -2.257812 C 1.996094 -2.5 2.210938 -2.691406 2.414062 -2.832031 C 2.613281 -2.972656 2.789062 -3.039062 2.933594 -3.039062 C 3.089844 -3.039062 3.210938 -2.988281 3.296875 -2.882812 C 3.382812 -2.777344 3.421875 -2.652344 3.421875 -2.511719 C 3.421875 -2.265625 3.378906 -2.007812 3.289062 -1.734375 C 3.199219 -1.460938 3.085938 -1.195312 2.941406 -0.945312 C 2.796875 -0.695312 2.640625 -0.480469 2.46875 -0.304688 C 2.441406 -0.273438 2.398438 -0.238281 2.339844 -0.191406 C 2.28125 -0.144531 2.214844 -0.101562 2.136719 -0.0585938 C 2.058594 -0.015625 1.984375 0.0234375 1.902344 0.0546875 C 1.824219 0.0859375 1.75 0.101562 1.683594 0.101562 C 1.648438 0.101562 1.609375 0.0859375 1.5625 0.0585938 C 1.515625 0.0273438 1.480469 -0.0078125 1.449219 -0.0507812 C 1.417969 -0.09375 1.402344 -0.132812 1.402344 -0.167969 C 1.402344 -0.191406 1.410156 -0.21875 1.429688 -0.253906 C 1.449219 -0.285156 1.472656 -0.316406 1.503906 -0.339844 C 1.53125 -0.363281 1.558594 -0.375 1.589844 -0.375 C 1.632812 -0.375 1.667969 -0.367188 1.699219 -0.351562 C 1.730469 -0.332031 1.761719 -0.3125 1.785156 -0.289062 C 1.8125 -0.265625 1.839844 -0.242188 1.871094 -0.222656 C 1.898438 -0.203125 1.933594 -0.195312 1.972656 -0.195312 C 2.054688 -0.195312 2.140625 -0.242188 2.230469 -0.339844 C 2.324219 -0.4375 2.410156 -0.5625 2.496094 -0.722656 C 2.578125 -0.882812 2.65625 -1.054688 2.722656 -1.246094 C 2.789062 -1.4375 2.84375 -1.628906 2.886719 -1.820312 C 2.925781 -2.011719 2.945312 -2.191406 2.945312 -2.355469 C 2.945312 -2.464844 2.925781 -2.550781 2.878906 -2.609375 C 2.832031 -2.671875 2.765625 -2.703125 2.671875 -2.703125 C 2.566406 -2.703125 2.449219 -2.648438 2.316406 -2.546875 C 2.183594 -2.441406 2.046875 -2.304688 1.902344 -2.136719 C 1.761719 -1.96875 1.621094 -1.789062 1.488281 -1.597656 C 1.351562 -1.402344 1.230469 -1.214844 1.121094 -1.03125 C 1.007812 -0.847656 0.917969 -0.695312 0.851562 -0.5625 C 0.730469 -0.332031 0.640625 -0.160156 0.582031 -0.0429688 C 0.519531 0.0742188 0.460938 0.128906 0.40625 0.128906 Z "/>
</g>
<g id="glyph-0-4">
<rect x="0" y="0" width="0" height="0" mask="url(#mask-0)"/>
</g>
<g id="glyph-0-5">
<path d="M 0.585938 -2.269531 C 0.5625 -2.269531 0.539062 -2.277344 0.515625 -2.296875 C 0.496094 -2.316406 0.484375 -2.335938 0.484375 -2.355469 C 0.484375 -2.378906 0.488281 -2.414062 0.5 -2.457031 C 0.507812 -2.5 0.527344 -2.539062 0.550781 -2.574219 C 0.578125 -2.609375 0.613281 -2.628906 0.65625 -2.628906 L 3.929688 -2.628906 C 3.953125 -2.628906 3.976562 -2.621094 3.996094 -2.605469 C 4.019531 -2.59375 4.03125 -2.574219 4.03125 -2.550781 C 4.03125 -2.5 4.007812 -2.441406 3.957031 -2.371094 C 3.910156 -2.300781 3.855469 -2.269531 3.800781 -2.269531 Z M 0.585938 -1.03125 C 0.5625 -1.03125 0.539062 -1.042969 0.515625 -1.0625 C 0.496094 -1.082031 0.484375 -1.101562 0.484375 -1.121094 C 0.484375 -1.144531 0.488281 -1.175781 0.5 -1.21875 C 0.507812 -1.261719 0.527344 -1.304688 0.550781 -1.339844 C 0.578125 -1.375 0.613281 -1.394531 0.65625 -1.394531 L 3.929688 -1.394531 C 3.953125 -1.394531 3.976562 -1.386719 3.996094 -1.371094 C 4.019531 -1.359375 4.03125 -1.339844 4.03125 -1.316406 C 4.03125 -1.253906 4.007812 -1.1875 3.957031 -1.125 C 3.910156 -1.0625 3.855469 -1.03125 3.800781 -1.03125 Z "/>
</g>
<g id="glyph-0-6">
<path d="M 0.5625 0.101562 C 0.492188 0.101562 0.417969 0.0585938 0.34375 -0.0273438 C 0.269531 -0.113281 0.203125 -0.21875 0.152344 -0.335938 C 0.0976562 -0.453125 0.0703125 -0.5625 0.0703125 -0.65625 C 0.0703125 -0.8125 0.105469 -0.988281 0.171875 -1.191406 C 0.242188 -1.394531 0.332031 -1.601562 0.449219 -1.808594 C 0.5625 -2.019531 0.691406 -2.210938 0.835938 -2.390625 C 0.976562 -2.570312 1.121094 -2.714844 1.265625 -2.824219 C 1.414062 -2.933594 1.554688 -2.988281 1.691406 -2.988281 C 1.730469 -2.988281 1.761719 -2.980469 1.792969 -2.964844 C 1.824219 -2.949219 1.851562 -2.925781 1.871094 -2.894531 C 1.890625 -2.863281 1.898438 -2.824219 1.898438 -2.78125 C 1.898438 -2.746094 1.894531 -2.714844 1.882812 -2.6875 C 1.871094 -2.65625 1.835938 -2.625 1.777344 -2.585938 C 1.648438 -2.488281 1.511719 -2.378906 1.371094 -2.257812 C 1.230469 -2.132812 1.097656 -2.003906 0.96875 -1.871094 C 0.839844 -1.734375 0.722656 -1.597656 0.617188 -1.457031 C 0.515625 -1.320312 0.433594 -1.183594 0.371094 -1.054688 C 0.3125 -0.925781 0.28125 -0.804688 0.28125 -0.695312 C 0.28125 -0.589844 0.3125 -0.507812 0.378906 -0.453125 C 0.445312 -0.402344 0.535156 -0.375 0.65625 -0.375 C 0.90625 -0.375 1.125 -0.441406 1.304688 -0.570312 C 1.484375 -0.699219 1.605469 -0.863281 1.667969 -1.0625 C 1.679688 -1.1875 1.691406 -1.300781 1.703125 -1.410156 C 1.71875 -1.515625 1.734375 -1.605469 1.753906 -1.683594 C 1.773438 -1.746094 1.804688 -1.796875 1.847656 -1.835938 C 1.890625 -1.875 1.945312 -1.902344 2.007812 -1.921875 C 2.070312 -1.941406 2.136719 -1.949219 2.203125 -1.949219 C 2.261719 -1.949219 2.308594 -1.933594 2.347656 -1.902344 C 2.386719 -1.871094 2.40625 -1.835938 2.40625 -1.792969 C 2.40625 -1.722656 2.378906 -1.632812 2.320312 -1.511719 C 2.265625 -1.394531 2.199219 -1.273438 2.125 -1.144531 C 2.046875 -1.015625 1.972656 -0.902344 1.898438 -0.792969 C 1.871094 -0.683594 1.882812 -0.582031 1.9375 -0.492188 C 1.992188 -0.398438 2.09375 -0.355469 2.230469 -0.355469 C 2.390625 -0.355469 2.546875 -0.398438 2.703125 -0.484375 C 2.859375 -0.570312 3.003906 -0.6875 3.136719 -0.832031 C 3.269531 -0.976562 3.375 -1.132812 3.457031 -1.300781 C 3.535156 -1.46875 3.574219 -1.632812 3.574219 -1.796875 C 3.574219 -1.910156 3.554688 -2.015625 3.511719 -2.117188 C 3.46875 -2.21875 3.417969 -2.304688 3.367188 -2.382812 C 3.316406 -2.460938 3.273438 -2.527344 3.230469 -2.582031 C 3.191406 -2.636719 3.171875 -2.683594 3.171875 -2.714844 C 3.171875 -2.769531 3.183594 -2.816406 3.214844 -2.855469 C 3.242188 -2.898438 3.277344 -2.929688 3.316406 -2.953125 C 3.355469 -2.976562 3.386719 -2.988281 3.410156 -2.988281 C 3.578125 -2.988281 3.699219 -2.898438 3.773438 -2.710938 C 3.847656 -2.527344 3.886719 -2.304688 3.886719 -2.050781 C 3.886719 -1.804688 3.839844 -1.558594 3.75 -1.308594 C 3.65625 -1.058594 3.53125 -0.824219 3.371094 -0.609375 C 3.207031 -0.394531 3.027344 -0.222656 2.824219 -0.09375 C 2.621094 0.0351562 2.40625 0.101562 2.179688 0.101562 C 2.046875 0.101562 1.945312 0.0625 1.878906 -0.0195312 C 1.8125 -0.0976562 1.769531 -0.1875 1.75 -0.285156 C 1.734375 -0.382812 1.730469 -0.460938 1.742188 -0.519531 C 1.746094 -0.539062 1.742188 -0.550781 1.726562 -0.550781 C 1.710938 -0.554688 1.695312 -0.546875 1.675781 -0.527344 C 1.632812 -0.484375 1.558594 -0.410156 1.457031 -0.3125 C 1.351562 -0.210938 1.226562 -0.117188 1.078125 -0.0273438 C 0.925781 0.0585938 0.757812 0.101562 0.5625 0.101562 Z "/>
</g>
<g id="glyph-0-7">
<path d="M -0.332031 0.449219 C -0.355469 0.449219 -0.378906 0.433594 -0.398438 0.40625 C -0.417969 0.382812 -0.417969 0.359375 -0.40625 0.339844 L 2.5 -4.679688 C 2.53125 -4.734375 2.574219 -4.765625 2.625 -4.78125 C 2.675781 -4.796875 2.734375 -4.804688 2.796875 -4.804688 C 2.820312 -4.804688 2.835938 -4.789062 2.847656 -4.757812 C 2.859375 -4.730469 2.859375 -4.703125 2.847656 -4.679688 L -0.0585938 0.339844 C -0.0859375 0.386719 -0.125 0.417969 -0.171875 0.429688 C -0.222656 0.441406 -0.273438 0.449219 -0.332031 0.449219 Z "/>
</g>
<g id="glyph-0-8">
<path d="M 2.085938 0.152344 C 1.972656 0.152344 1.878906 0.121094 1.8125 0.0625 C 1.746094 0 1.683594 -0.0859375 1.632812 -0.203125 L 1.359375 -0.96875 C 1.328125 -1.050781 1.285156 -1.125 1.230469 -1.1875 C 1.175781 -1.253906 1.109375 -1.285156 1.027344 -1.285156 C 0.992188 -1.285156 0.957031 -1.25 0.921875 -1.171875 C 0.886719 -1.097656 0.855469 -1.035156 0.832031 -0.980469 C 0.816406 -0.949219 0.792969 -0.890625 0.761719 -0.8125 C 0.730469 -0.734375 0.695312 -0.644531 0.65625 -0.550781 C 0.617188 -0.453125 0.585938 -0.363281 0.554688 -0.285156 C 0.527344 -0.207031 0.503906 -0.148438 0.492188 -0.117188 C 0.460938 -0.0390625 0.4375 0.0195312 0.417969 0.0546875 C 0.398438 0.0898438 0.359375 0.109375 0.304688 0.109375 C 0.269531 0.109375 0.230469 0.09375 0.183594 0.0625 C 0.136719 0.03125 0.117188 -0.0078125 0.117188 -0.0507812 C 0.117188 -0.0742188 0.121094 -0.113281 0.128906 -0.167969 C 0.140625 -0.21875 0.152344 -0.28125 0.171875 -0.355469 L 1.378906 -4.09375 C 1.410156 -4.1875 1.425781 -4.265625 1.4375 -4.328125 C 1.445312 -4.390625 1.453125 -4.449219 1.453125 -4.507812 C 1.453125 -4.566406 1.398438 -4.613281 1.292969 -4.652344 C 1.246094 -4.671875 1.203125 -4.6875 1.164062 -4.707031 C 1.125 -4.722656 1.105469 -4.738281 1.105469 -4.753906 C 1.105469 -4.773438 1.109375 -4.789062 1.117188 -4.804688 C 1.125 -4.816406 1.132812 -4.828125 1.148438 -4.832031 C 1.203125 -4.859375 1.265625 -4.890625 1.347656 -4.917969 C 1.425781 -4.949219 1.507812 -4.976562 1.59375 -5.003906 C 1.675781 -5.035156 1.753906 -5.058594 1.820312 -5.074219 C 1.886719 -5.089844 1.9375 -5.097656 1.964844 -5.097656 C 1.988281 -5.097656 2.015625 -5.097656 2.039062 -5.09375 C 2.066406 -5.085938 2.082031 -5.066406 2.082031 -5.027344 C 2.082031 -4.988281 2.078125 -4.960938 2.078125 -4.941406 C 2.074219 -4.921875 2.066406 -4.894531 2.058594 -4.859375 L 1.082031 -1.890625 C 1.0625 -1.839844 1.066406 -1.816406 1.085938 -1.820312 C 1.109375 -1.824219 1.128906 -1.839844 1.148438 -1.863281 C 1.3125 -2.09375 1.488281 -2.292969 1.671875 -2.464844 C 1.855469 -2.632812 2.042969 -2.761719 2.230469 -2.855469 C 2.417969 -2.949219 2.59375 -2.996094 2.75 -2.996094 C 2.847656 -2.996094 2.941406 -2.972656 3.039062 -2.917969 C 3.132812 -2.863281 3.179688 -2.78125 3.179688 -2.671875 C 3.179688 -2.546875 3.125 -2.414062 3.019531 -2.273438 C 2.914062 -2.136719 2.78125 -2.003906 2.625 -1.878906 C 2.46875 -1.753906 2.308594 -1.644531 2.140625 -1.550781 C 1.976562 -1.457031 1.828125 -1.390625 1.703125 -1.359375 C 1.660156 -1.347656 1.648438 -1.320312 1.667969 -1.277344 L 2 -0.492188 C 2.023438 -0.441406 2.058594 -0.394531 2.097656 -0.351562 C 2.140625 -0.304688 2.1875 -0.28125 2.238281 -0.28125 C 2.332031 -0.28125 2.421875 -0.324219 2.511719 -0.410156 C 2.605469 -0.496094 2.683594 -0.59375 2.746094 -0.699219 C 2.769531 -0.742188 2.789062 -0.769531 2.804688 -0.78125 C 2.824219 -0.789062 2.839844 -0.792969 2.859375 -0.792969 C 2.871094 -0.792969 2.878906 -0.785156 2.890625 -0.765625 C 2.898438 -0.746094 2.902344 -0.726562 2.902344 -0.707031 C 2.902344 -0.628906 2.871094 -0.542969 2.808594 -0.449219 C 2.746094 -0.351562 2.671875 -0.257812 2.578125 -0.167969 C 2.488281 -0.0742188 2.398438 0 2.308594 0.0625 C 2.21875 0.121094 2.144531 0.152344 2.085938 0.152344 Z M 1.328125 -1.464844 C 1.476562 -1.464844 1.632812 -1.503906 1.789062 -1.574219 C 1.945312 -1.648438 2.089844 -1.734375 2.222656 -1.839844 C 2.359375 -1.945312 2.46875 -2.058594 2.550781 -2.171875 C 2.632812 -2.285156 2.671875 -2.378906 2.671875 -2.457031 C 2.671875 -2.527344 2.652344 -2.585938 2.605469 -2.625 C 2.5625 -2.667969 2.5 -2.6875 2.414062 -2.6875 C 2.3125 -2.6875 2.195312 -2.640625 2.0625 -2.550781 C 1.929688 -2.457031 1.800781 -2.347656 1.675781 -2.214844 C 1.550781 -2.082031 1.445312 -1.957031 1.363281 -1.839844 C 1.28125 -1.726562 1.242188 -1.640625 1.242188 -1.589844 C 1.242188 -1.558594 1.25 -1.53125 1.265625 -1.507812 C 1.277344 -1.480469 1.300781 -1.464844 1.328125 -1.464844 Z "/>
</g>
<g id="glyph-0-9">
<path d="M 2.59375 0.0234375 C 2.425781 0.0117188 2.296875 0.00390625 2.207031 -0.00390625 C 2.117188 -0.0117188 2.046875 -0.015625 2 -0.0195312 C 1.953125 -0.0195312 1.90625 -0.0234375 1.863281 -0.0234375 C 1.820312 -0.0234375 1.757812 -0.0234375 1.675781 -0.0234375 C 1.515625 -0.0234375 1.378906 -0.0234375 1.257812 -0.0234375 C 1.136719 -0.0234375 1.019531 -0.0195312 0.910156 -0.0195312 C 0.800781 -0.015625 0.683594 -0.0117188 0.558594 -0.0078125 C 0.4375 -0.00390625 0.292969 0.00390625 0.128906 0.015625 C 0.0976562 0.015625 0.0703125 -0.0117188 0.046875 -0.0625 C 0.0234375 -0.113281 0.0390625 -0.160156 0.09375 -0.203125 L 1.632812 -1.480469 C 1.859375 -1.667969 2.074219 -1.875 2.28125 -2.09375 C 2.488281 -2.316406 2.660156 -2.542969 2.792969 -2.78125 C 2.925781 -3.015625 2.988281 -3.246094 2.988281 -3.472656 C 2.988281 -3.683594 2.9375 -3.839844 2.832031 -3.9375 C 2.726562 -4.03125 2.566406 -4.082031 2.355469 -4.082031 C 2.195312 -4.082031 2.027344 -4.03125 1.847656 -3.929688 C 1.671875 -3.828125 1.507812 -3.675781 1.359375 -3.46875 C 1.339844 -3.445312 1.316406 -3.421875 1.289062 -3.398438 C 1.261719 -3.375 1.238281 -3.367188 1.214844 -3.367188 C 1.195312 -3.367188 1.179688 -3.386719 1.171875 -3.429688 C 1.160156 -3.472656 1.164062 -3.511719 1.183594 -3.546875 C 1.21875 -3.59375 1.277344 -3.671875 1.363281 -3.78125 C 1.449219 -3.890625 1.558594 -4.003906 1.691406 -4.121094 C 1.820312 -4.238281 1.96875 -4.339844 2.136719 -4.425781 C 2.304688 -4.507812 2.488281 -4.550781 2.679688 -4.550781 C 2.972656 -4.550781 3.203125 -4.46875 3.371094 -4.304688 C 3.535156 -4.140625 3.617188 -3.929688 3.609375 -3.675781 C 3.609375 -3.46875 3.566406 -3.269531 3.472656 -3.082031 C 3.382812 -2.890625 3.265625 -2.710938 3.121094 -2.546875 C 2.976562 -2.378906 2.828125 -2.230469 2.671875 -2.09375 C 2.585938 -2.015625 2.46875 -1.917969 2.320312 -1.796875 C 2.175781 -1.675781 2.015625 -1.550781 1.84375 -1.410156 C 1.675781 -1.273438 1.511719 -1.140625 1.355469 -1.015625 C 1.199219 -0.886719 1.066406 -0.78125 0.957031 -0.695312 C 0.847656 -0.613281 0.78125 -0.5625 0.757812 -0.550781 C 0.722656 -0.53125 0.722656 -0.511719 0.746094 -0.496094 C 0.773438 -0.476562 0.800781 -0.46875 0.824219 -0.460938 C 0.894531 -0.457031 0.984375 -0.453125 1.09375 -0.449219 C 1.203125 -0.445312 1.320312 -0.441406 1.445312 -0.441406 C 1.570312 -0.441406 1.699219 -0.441406 1.832031 -0.449219 C 1.964844 -0.453125 2.089844 -0.457031 2.210938 -0.460938 C 2.339844 -0.472656 2.4375 -0.484375 2.503906 -0.5 C 2.566406 -0.511719 2.625 -0.542969 2.679688 -0.589844 C 2.734375 -0.636719 2.800781 -0.707031 2.882812 -0.800781 C 2.90625 -0.832031 2.9375 -0.863281 2.976562 -0.902344 C 3.015625 -0.941406 3.058594 -0.964844 3.105469 -0.96875 C 3.128906 -0.972656 3.148438 -0.957031 3.167969 -0.921875 C 3.183594 -0.886719 3.183594 -0.855469 3.171875 -0.832031 C 3.09375 -0.710938 3.039062 -0.625 3 -0.578125 C 2.964844 -0.53125 2.941406 -0.492188 2.925781 -0.46875 C 2.910156 -0.445312 2.894531 -0.414062 2.871094 -0.371094 C 2.847656 -0.332031 2.8125 -0.257812 2.765625 -0.152344 C 2.730469 -0.0742188 2.703125 -0.0273438 2.671875 -0.0078125 C 2.644531 0.0117188 2.617188 0.0234375 2.59375 0.0234375 Z "/>
</g>
<g id="glyph-0-10">
<path d="M 0.542969 0.121094 C 0.519531 0.121094 0.496094 0.109375 0.476562 0.0859375 C 0.457031 0.0625 0.441406 0.0351562 0.429688 0 C 0.417969 -0.0351562 0.410156 -0.0664062 0.410156 -0.09375 C 0.410156 -0.117188 0.425781 -0.175781 0.457031 -0.265625 C 0.488281 -0.359375 0.53125 -0.472656 0.578125 -0.605469 L 1.242188 -2.347656 C 1.265625 -2.410156 1.265625 -2.464844 1.242188 -2.507812 C 1.21875 -2.550781 1.175781 -2.570312 1.121094 -2.570312 C 1.046875 -2.570312 0.972656 -2.554688 0.890625 -2.519531 C 0.8125 -2.488281 0.714844 -2.394531 0.597656 -2.238281 C 0.578125 -2.21875 0.558594 -2.210938 0.539062 -2.214844 C 0.515625 -2.214844 0.5 -2.234375 0.492188 -2.269531 C 0.492188 -2.296875 0.496094 -2.335938 0.503906 -2.378906 C 0.515625 -2.425781 0.53125 -2.472656 0.550781 -2.519531 C 0.574219 -2.570312 0.59375 -2.605469 0.613281 -2.628906 C 0.695312 -2.730469 0.792969 -2.8125 0.910156 -2.882812 C 1.027344 -2.949219 1.164062 -2.984375 1.328125 -2.988281 C 1.394531 -2.988281 1.460938 -2.980469 1.527344 -2.957031 C 1.59375 -2.9375 1.640625 -2.894531 1.671875 -2.839844 C 1.703125 -2.78125 1.699219 -2.703125 1.660156 -2.601562 L 1.25 -1.53125 C 1.234375 -1.496094 1.238281 -1.476562 1.261719 -1.472656 C 1.28125 -1.46875 1.300781 -1.476562 1.316406 -1.503906 C 1.523438 -1.820312 1.71875 -2.089844 1.910156 -2.3125 C 2.101562 -2.53125 2.285156 -2.703125 2.460938 -2.816406 C 2.636719 -2.933594 2.800781 -2.988281 2.953125 -2.988281 C 3.046875 -2.988281 3.128906 -2.964844 3.203125 -2.910156 C 3.277344 -2.859375 3.328125 -2.78125 3.355469 -2.675781 C 3.382812 -2.574219 3.367188 -2.445312 3.316406 -2.289062 L 3.054688 -1.53125 C 3.039062 -1.496094 3.042969 -1.476562 3.066406 -1.472656 C 3.085938 -1.46875 3.105469 -1.476562 3.121094 -1.503906 C 3.324219 -1.835938 3.519531 -2.109375 3.714844 -2.328125 C 3.910156 -2.546875 4.101562 -2.714844 4.28125 -2.824219 C 4.464844 -2.933594 4.632812 -2.988281 4.789062 -2.988281 C 4.878906 -2.988281 4.960938 -2.960938 5.035156 -2.902344 C 5.105469 -2.84375 5.152344 -2.761719 5.175781 -2.648438 C 5.195312 -2.535156 5.175781 -2.394531 5.105469 -2.222656 L 4.484375 -0.621094 C 4.414062 -0.449219 4.425781 -0.359375 4.519531 -0.359375 C 4.578125 -0.359375 4.648438 -0.386719 4.730469 -0.441406 C 4.8125 -0.492188 4.894531 -0.554688 4.980469 -0.628906 C 5.0625 -0.699219 5.136719 -0.765625 5.199219 -0.828125 C 5.261719 -0.886719 5.304688 -0.925781 5.324219 -0.945312 C 5.328125 -0.949219 5.332031 -0.953125 5.332031 -0.953125 C 5.335938 -0.953125 5.339844 -0.953125 5.34375 -0.953125 C 5.359375 -0.953125 5.371094 -0.949219 5.382812 -0.933594 C 5.394531 -0.921875 5.402344 -0.90625 5.402344 -0.886719 C 5.402344 -0.847656 5.394531 -0.808594 5.378906 -0.769531 C 5.359375 -0.726562 5.324219 -0.679688 5.273438 -0.628906 C 5.113281 -0.449219 4.933594 -0.285156 4.738281 -0.128906 C 4.539062 0.0234375 4.328125 0.101562 4.101562 0.101562 C 4.0625 0.101562 4.023438 0.0859375 3.984375 0.0546875 C 3.941406 0.0234375 3.910156 -0.0195312 3.890625 -0.0703125 C 3.867188 -0.125 3.867188 -0.179688 3.886719 -0.230469 L 4.722656 -2.390625 C 4.761719 -2.488281 4.761719 -2.558594 4.71875 -2.605469 C 4.679688 -2.65625 4.632812 -2.683594 4.578125 -2.6875 C 4.5 -2.691406 4.398438 -2.652344 4.269531 -2.566406 C 4.140625 -2.484375 3.992188 -2.34375 3.835938 -2.144531 C 3.761719 -2.054688 3.664062 -1.917969 3.535156 -1.734375 C 3.40625 -1.550781 3.277344 -1.355469 3.144531 -1.144531 C 3.011719 -0.933594 2.898438 -0.742188 2.800781 -0.5625 C 2.71875 -0.410156 2.644531 -0.28125 2.570312 -0.179688 C 2.5 -0.078125 2.433594 -0.00390625 2.375 0.046875 C 2.316406 0.0976562 2.269531 0.121094 2.230469 0.121094 C 2.207031 0.121094 2.1875 0.113281 2.167969 0.0898438 C 2.148438 0.0703125 2.132812 0.0429688 2.121094 0.015625 C 2.109375 -0.015625 2.101562 -0.0429688 2.101562 -0.0703125 C 2.101562 -0.09375 2.117188 -0.15625 2.148438 -0.257812 C 2.179688 -0.355469 2.21875 -0.472656 2.269531 -0.605469 L 2.941406 -2.414062 C 2.984375 -2.523438 2.976562 -2.597656 2.925781 -2.640625 C 2.871094 -2.679688 2.828125 -2.703125 2.796875 -2.707031 C 2.71875 -2.71875 2.613281 -2.679688 2.484375 -2.589844 C 2.355469 -2.5 2.210938 -2.355469 2.050781 -2.160156 C 1.992188 -2.09375 1.921875 -1.996094 1.835938 -1.871094 C 1.75 -1.746094 1.65625 -1.605469 1.554688 -1.457031 C 1.457031 -1.304688 1.363281 -1.148438 1.265625 -0.992188 C 1.171875 -0.835938 1.089844 -0.695312 1.019531 -0.5625 C 0.894531 -0.332031 0.796875 -0.160156 0.730469 -0.046875 C 0.664062 0.0664062 0.597656 0.121094 0.542969 0.121094 Z "/>
</g>
<g id="glyph-1-0">
<path d="M 1.148438 -3.753906 L 0.433594 -1.105469 C 0.316406 -0.664062 0.273438 -0.527344 0.152344 -0.136719 L 0.789062 -0.136719 C 0.832031 -0.3125 0.867188 -0.449219 0.886719 -0.535156 C 0.960938 -0.832031 1.011719 -1.039062 1.019531 -1.089844 L 1.21875 -1.855469 C 1.351562 -2.324219 1.539062 -2.703125 1.847656 -3.085938 C 2.136719 -3.429688 2.433594 -3.609375 2.722656 -3.609375 C 3.027344 -3.609375 3.207031 -3.429688 3.207031 -3.132812 C 3.207031 -2.960938 3.164062 -2.75 3.070312 -2.417969 L 2.816406 -1.488281 C 2.722656 -1.125 2.65625 -0.800781 2.65625 -0.648438 C 2.65625 -0.289062 2.882812 -0.0585938 3.230469 -0.0585938 C 3.640625 -0.0585938 3.914062 -0.3125 4.238281 -0.960938 L 4.074219 -1.046875 C 3.835938 -0.554688 3.589844 -0.289062 3.378906 -0.289062 C 3.277344 -0.289062 3.214844 -0.382812 3.214844 -0.527344 C 3.214844 -0.75 3.257812 -0.945312 3.4375 -1.601562 L 3.640625 -2.367188 C 3.726562 -2.695312 3.785156 -3.019531 3.785156 -3.199219 C 3.785156 -3.617188 3.46875 -3.878906 2.953125 -3.878906 C 2.40625 -3.878906 2.03125 -3.648438 1.53125 -3.003906 L 1.820312 -4.066406 L 2.664062 -4.492188 L 2.605469 -4.714844 L 1.898438 -4.355469 C 2.007812 -4.773438 2.128906 -5.1875 2.238281 -5.519531 L 0.882812 -5.367188 L 0.84375 -5.207031 C 1.21875 -5.199219 1.308594 -5.191406 1.378906 -5.171875 C 1.429688 -5.148438 1.464844 -5.097656 1.464844 -5.046875 C 1.464844 -4.992188 1.429688 -4.796875 1.386719 -4.644531 L 1.21875 -4.03125 L 0.503906 -3.667969 L 0.578125 -3.453125 Z "/>
</g>
</g>
<image id="source-54" x="0" y="0" width="0" height="0"/>
<mask id="mask-0">
<use xlink:href="#source-54"/>
</mask>
</defs>
<g fill="rgb(74.901961%, 20%, 22.352941%)" fill-opacity="1">
<use xlink:href="#glyph-0-0" x="30" y="27.273438"/>
<use xlink:href="#glyph-0-1" x="33" y="27.273438"/>
<use xlink:href="#glyph-0-2" x="36" y="27.273438"/>
<use xlink:href="#glyph-0-3" x="39" y="27.273438"/>
<use xlink:href="#glyph-0-4" x="43" y="27.273438"/>
<use xlink:href="#glyph-0-5" x="44" y="27.273438"/>
<use xlink:href="#glyph-0-4" x="48" y="27.273438"/>
</g>
<g fill="rgb(74.901961%, 20%, 22.352941%)" fill-opacity="1">
<use xlink:href="#glyph-0-6" x="49" y="27.273438"/>
<use xlink:href="#glyph-0-7" x="53" y="27.273438"/>
</g>
<g fill="rgb(74.901961%, 20%, 22.352941%)" fill-opacity="1">
<use xlink:href="#glyph-0-8" x="55" y="27.273438"/>
<use xlink:href="#glyph-0-4" x="58" y="27.273438"/>
<use xlink:href="#glyph-0-5" x="59" y="27.273438"/>
<use xlink:href="#glyph-0-4" x="63" y="27.273438"/>
</g>
<g fill="rgb(74.901961%, 20%, 22.352941%)" fill-opacity="1">
<use xlink:href="#glyph-1-0" x="64" y="27.273438"/>
</g>
<g fill="rgb(74.901961%, 20%, 22.352941%)" fill-opacity="1">
<use xlink:href="#glyph-0-8" x="68" y="27.273438"/>
<use xlink:href="#glyph-0-7" x="71" y="27.273438"/>
<use xlink:href="#glyph-0-9" x="73" y="27.273438"/>
<use xlink:href="#glyph-0-10" x="76" y="27.273438"/>
<use xlink:href="#glyph-0-4" x="82" y="27.273438"/>
<use xlink:href="#glyph-0-5" x="83" y="27.273438"/>
<use xlink:href="#glyph-0-4" x="87" y="27.273438"/>
<use xlink:href="#glyph-0-2" x="88" y="27.273438"/>
<use xlink:href="#glyph-0-7" x="91" y="27.273438"/>
<use xlink:href="#glyph-0-9" x="93" y="27.273438"/>
<use xlink:href="#glyph-0-10" x="96" y="27.273438"/>
<use xlink:href="#glyph-0-4" x="102" y="27.273438"/>
<use xlink:href="#glyph-0-5" x="103" y="27.273438"/>
<use xlink:href="#glyph-0-4" x="107" y="27.273438"/>
<use xlink:href="#glyph-0-0" x="108" y="27.273438"/>
<use xlink:href="#glyph-0-7" x="111" y="27.273438"/>
<use xlink:href="#glyph-0-9" x="113" y="27.273438"/>
</g>
</svg>
