<?xml version="1.0" encoding="UTF-8"?>
<svg xmlns="http://www.w3.org/2000/svg" xmlns:xlink="http://www.w3.org/1999/xlink" width="1920" height="1080" viewBox="0 0 1920 1080">
<defs>
<g>
<g id="glyph-0-0">
<path d="M 6.085938 0 L 6.085938 -6.804688 L 6.796875 -6.804688 L 6.796875 0 Z M 1.109375 0 L 1.109375 -6.804688 L 1.828125 -6.804688 L 1.828125 0 Z M 1.75 -3.140625 L 1.75 -3.773438 L 6.15625 -3.773438 L 6.15625 -3.140625 Z "/>
</g>
<g id="glyph-0-1">
<path d="M 2.730469 0 L 2.730469 -2.527344 L 2.898438 -2.082031 L 0.0078125 -6.804688 L 0.777344 -6.804688 L 3.316406 -2.652344 L 2.90625 -2.652344 L 5.445312 -6.804688 L 6.164062 -6.804688 L 3.277344 -2.082031 L 3.441406 -2.527344 L 3.441406 0 Z "/>
</g>
<g id="glyph-0-2">
<path d="M 1.109375 0 L 1.109375 -6.804688 L 3.878906 -6.804688 C 4.605469 -6.804688 5.242188 -6.660156 5.789062 -6.375 C 6.335938 -6.085938 6.765625 -5.683594 7.070312 -5.171875 C 7.375 -4.660156 7.523438 -4.070312 7.523438 -3.402344 C 7.523438 -2.734375 7.371094 -2.144531 7.070312 -1.632812 C 6.765625 -1.121094 6.335938 -0.722656 5.789062 -0.433594 C 5.242188 -0.144531 4.605469 0 3.878906 0 Z M 1.828125 -0.621094 L 3.839844 -0.621094 C 4.441406 -0.621094 4.964844 -0.742188 5.410156 -0.976562 C 5.855469 -1.214844 6.199219 -1.542969 6.445312 -1.960938 C 6.691406 -2.378906 6.816406 -2.859375 6.816406 -3.402344 C 6.816406 -3.953125 6.691406 -4.4375 6.445312 -4.851562 C 6.199219 -5.265625 5.855469 -5.59375 5.410156 -5.828125 C 4.964844 -6.066406 4.441406 -6.183594 3.839844 -6.183594 L 1.828125 -6.183594 Z "/>
</g>
<g id="glyph-0-3">
<path d="M 1.109375 0 L 1.109375 -6.804688 L 3.65625 -6.804688 C 4.519531 -6.804688 5.195312 -6.601562 5.691406 -6.1875 C 6.1875 -5.777344 6.4375 -5.203125 6.4375 -4.472656 C 6.4375 -3.992188 6.324219 -3.578125 6.101562 -3.234375 C 5.878906 -2.886719 5.558594 -2.621094 5.144531 -2.433594 C 4.730469 -2.25 4.234375 -2.160156 3.65625 -2.160156 L 1.507812 -2.160156 L 1.828125 -2.488281 L 1.828125 0 Z M 5.753906 0 L 4.003906 -2.46875 L 4.785156 -2.46875 L 6.542969 0 Z M 1.828125 -2.429688 L 1.507812 -2.769531 L 3.636719 -2.769531 C 4.316406 -2.769531 4.832031 -2.921875 5.1875 -3.21875 C 5.539062 -3.515625 5.71875 -3.933594 5.71875 -4.472656 C 5.71875 -5.015625 5.539062 -5.4375 5.1875 -5.738281 C 4.832031 -6.035156 4.316406 -6.183594 3.636719 -6.183594 L 1.507812 -6.183594 L 1.828125 -6.523438 Z "/>
</g>
<g id="glyph-0-4">
<path d="M 4.082031 0.0585938 C 3.570312 0.0585938 3.097656 -0.0273438 2.660156 -0.199219 C 2.222656 -0.371094 1.84375 -0.613281 1.523438 -0.929688 C 1.203125 -1.242188 0.953125 -1.609375 0.773438 -2.027344 C 0.59375 -2.445312 0.503906 -2.902344 0.503906 -3.402344 C 0.503906 -3.902344 0.59375 -4.359375 0.773438 -4.777344 C 0.953125 -5.195312 1.199219 -5.5625 1.523438 -5.878906 C 1.84375 -6.191406 2.21875 -6.433594 2.652344 -6.605469 C 3.089844 -6.777344 3.566406 -6.863281 4.082031 -6.863281 C 4.59375 -6.863281 5.070312 -6.777344 5.503906 -6.605469 C 5.9375 -6.433594 6.316406 -6.191406 6.636719 -5.882812 C 6.957031 -5.570312 7.207031 -5.203125 7.382812 -4.785156 C 7.5625 -4.363281 7.652344 -3.902344 7.652344 -3.402344 C 7.652344 -2.902344 7.5625 -2.445312 7.382812 -2.023438 C 7.207031 -1.601562 6.957031 -1.234375 6.636719 -0.921875 C 6.316406 -0.613281 5.9375 -0.371094 5.503906 -0.199219 C 5.070312 -0.0273438 4.59375 0.0585938 4.082031 0.0585938 Z M 4.082031 -0.582031 C 4.492188 -0.582031 4.871094 -0.652344 5.214844 -0.792969 C 5.5625 -0.933594 5.863281 -1.128906 6.121094 -1.386719 C 6.375 -1.640625 6.574219 -1.941406 6.71875 -2.28125 C 6.859375 -2.621094 6.933594 -2.996094 6.933594 -3.402344 C 6.933594 -3.8125 6.859375 -4.1875 6.71875 -4.527344 C 6.574219 -4.867188 6.375 -5.164062 6.121094 -5.421875 C 5.863281 -5.675781 5.5625 -5.875 5.214844 -6.011719 C 4.867188 -6.152344 4.492188 -6.222656 4.082031 -6.222656 C 3.675781 -6.222656 3.296875 -6.152344 2.945312 -6.011719 C 2.597656 -5.875 2.292969 -5.675781 2.035156 -5.421875 C 1.78125 -5.164062 1.578125 -4.867188 1.433594 -4.527344 C 1.289062 -4.1875 1.214844 -3.8125 1.214844 -3.402344 C 1.214844 -3 1.289062 -2.628906 1.433594 -2.285156 C 1.578125 -1.941406 1.78125 -1.640625 2.035156 -1.386719 C 2.292969 -1.128906 2.597656 -0.933594 2.945312 -0.792969 C 3.296875 -0.652344 3.675781 -0.582031 4.082031 -0.582031 Z "/>
</g>
<g id="glyph-0-5">
<path d="M 4.09375 0.0585938 C 3.574219 0.0585938 3.097656 -0.0273438 2.660156 -0.199219 C 2.222656 -0.371094 1.84375 -0.613281 1.523438 -0.921875 C 1.203125 -1.234375 0.953125 -1.601562 0.773438 -2.023438 C 0.59375 -2.445312 0.503906 -2.902344 0.503906 -3.402344 C 0.503906 -3.902344 0.59375 -4.363281 0.773438 -4.785156 C 0.953125 -5.207031 1.203125 -5.570312 1.527344 -5.882812 C 1.851562 -6.195312 2.230469 -6.433594 2.667969 -6.605469 C 3.105469 -6.777344 3.585938 -6.863281 4.101562 -6.863281 C 4.621094 -6.863281 5.097656 -6.78125 5.527344 -6.621094 C 5.957031 -6.460938 6.328125 -6.210938 6.628906 -5.882812 L 6.183594 -5.425781 C 5.898438 -5.710938 5.585938 -5.914062 5.242188 -6.039062 C 4.898438 -6.160156 4.527344 -6.222656 4.132812 -6.222656 C 3.710938 -6.222656 3.324219 -6.152344 2.96875 -6.011719 C 2.617188 -5.875 2.308594 -5.675781 2.046875 -5.421875 C 1.785156 -5.164062 1.578125 -4.867188 1.433594 -4.527344 C 1.289062 -4.1875 1.214844 -3.8125 1.214844 -3.402344 C 1.214844 -3 1.289062 -2.628906 1.433594 -2.285156 C 1.578125 -1.941406 1.785156 -1.640625 2.046875 -1.386719 C 2.308594 -1.128906 2.617188 -0.933594 2.96875 -0.792969 C 3.324219 -0.652344 3.707031 -0.582031 4.121094 -0.582031 C 4.511719 -0.582031 4.878906 -0.640625 5.226562 -0.757812 C 5.574219 -0.875 5.890625 -1.074219 6.183594 -1.351562 L 6.59375 -0.808594 C 6.269531 -0.523438 5.890625 -0.304688 5.453125 -0.160156 C 5.019531 -0.015625 4.566406 0.0585938 4.09375 0.0585938 Z M 6.59375 -0.808594 L 5.902344 -0.894531 L 5.902344 -3.402344 L 6.59375 -3.402344 Z "/>
</g>
<g id="glyph-0-6">
<path d="M 1.109375 0 L 1.109375 -6.804688 L 5.773438 -6.804688 L 5.773438 -6.183594 L 1.828125 -6.183594 L 1.828125 -0.621094 L 5.921875 -0.621094 L 5.921875 0 Z M 1.75 -3.148438 L 1.75 -3.761719 L 5.347656 -3.761719 L 5.347656 -3.148438 Z "/>
</g>
<g id="glyph-0-7">
<path d="M 1.109375 0 L 1.109375 -6.804688 L 1.703125 -6.804688 L 6.398438 -0.894531 L 6.085938 -0.894531 L 6.085938 -6.804688 L 6.796875 -6.804688 L 6.796875 0 L 6.203125 0 L 1.515625 -5.910156 L 1.828125 -5.910156 L 1.828125 0 Z "/>
</g>
<g id="glyph-0-8">
<rect x="0" y="0" width="0" height="0" mask="url(#mask-0)"/>
</g>
<g id="glyph-0-9">
<path d="M 1.691406 0 L 1.691406 -6.515625 L 2.003906 -6.183594 L 0.0859375 -6.183594 L 0.0859375 -6.804688 L 2.390625 -6.804688 L 2.390625 0 Z "/>
</g>
<g id="glyph-0-10">
<path d="M 2.332031 0.046875 C 1.910156 0.046875 1.511719 -0.0117188 1.136719 -0.132812 C 0.761719 -0.25 0.464844 -0.402344 0.253906 -0.582031 L 0.5625 -1.128906 C 0.769531 -0.972656 1.035156 -0.835938 1.359375 -0.722656 C 1.683594 -0.609375 2.027344 -0.554688 2.382812 -0.554688 C 2.867188 -0.554688 3.21875 -0.628906 3.433594 -0.78125 C 3.648438 -0.933594 3.753906 -1.136719 3.753906 -1.390625 C 3.753906 -1.578125 3.691406 -1.726562 3.574219 -1.832031 C 3.453125 -1.9375 3.296875 -2.019531 3.101562 -2.074219 C 2.90625 -2.128906 2.691406 -2.179688 2.449219 -2.214844 C 2.210938 -2.253906 1.972656 -2.300781 1.734375 -2.351562 C 1.5 -2.40625 1.285156 -2.480469 1.089844 -2.582031 C 0.894531 -2.683594 0.738281 -2.820312 0.617188 -2.996094 C 0.496094 -3.171875 0.4375 -3.402344 0.4375 -3.695312 C 0.4375 -3.972656 0.515625 -4.222656 0.671875 -4.441406 C 0.828125 -4.664062 1.054688 -4.835938 1.355469 -4.964844 C 1.65625 -5.089844 2.027344 -5.152344 2.460938 -5.152344 C 2.789062 -5.152344 3.121094 -5.109375 3.453125 -5.023438 C 3.78125 -4.933594 4.054688 -4.820312 4.269531 -4.675781 L 3.96875 -4.121094 C 3.742188 -4.277344 3.496094 -4.390625 3.238281 -4.457031 C 2.980469 -4.527344 2.71875 -4.558594 2.460938 -4.558594 C 2 -4.558594 1.660156 -4.480469 1.445312 -4.320312 C 1.226562 -4.164062 1.117188 -3.960938 1.117188 -3.714844 C 1.117188 -3.519531 1.179688 -3.367188 1.296875 -3.257812 C 1.417969 -3.148438 1.578125 -3.0625 1.773438 -3 C 1.972656 -2.9375 2.1875 -2.886719 2.425781 -2.847656 C 2.664062 -2.808594 2.898438 -2.761719 3.136719 -2.707031 C 3.371094 -2.652344 3.589844 -2.578125 3.785156 -2.484375 C 3.984375 -2.390625 4.144531 -2.257812 4.261719 -2.085938 C 4.382812 -1.914062 4.441406 -1.6875 4.441406 -1.410156 C 4.441406 -1.113281 4.359375 -0.855469 4.195312 -0.636719 C 4.03125 -0.417969 3.789062 -0.25 3.476562 -0.132812 C 3.160156 -0.0117188 2.78125 0.046875 2.332031 0.046875 Z "/>
</g>
</g>
<image id="source-13" x="0" y="0" width="0" height="0"/>
<mask id="mask-0">
<use xlink:href="#source-13"/>
</mask>
</defs>
<g fill="rgb(16.470588%, 10.196078%, 5.490196%)" fill-opacity="1">
<use xlink:href="#glyph-0-0" x="30" y="29.411133"/>
<use xlink:href="#glyph-0-1" x="38" y="29.411133"/>
<use xlink:href="#glyph-0-2" x="44" y="29.411133"/>
<use xlink:href="#glyph-0-3" x="52" y="29.411133"/>
<use xlink:href="#glyph-0-4" x="59" y="29.411133"/>
<use xlink:href="#glyph-0-5" x="67" y="29.411133"/>
<use xlink:href="#glyph-0-6" x="75" y="29.411133"/>
<use xlink:href="#glyph-0-7" x="82" y="29.411133"/>
<use xlink:href="#glyph-0-8" x="90" y="29.411133"/>
<use xlink:href="#glyph-0-9" x="93" y="29.411133"/>
<use xlink:href="#glyph-0-10" x="97" y="29.411133"/>
</g>
</svg>
