<?xml version="1.0" encoding="UTF-8"?>
<svg xmlns="http://www.w3.org/2000/svg" xmlns:xlink="http://www.w3.org/1999/xlink" width="1920" height="1080" viewBox="0 0 1920 1080">
<defs>
<g>
<g id="glyph-0-0">
<path d="M 0.265625 -3.109375 L 2.398438 -3.109375 L 2.398438 -2.78125 L 1.515625 -2.78125 L 1.515625 -0.328125 L 2.398438 -0.328125 L 2.398438 0 L 0.265625 0 L 0.265625 -0.328125 L 1.148438 -0.328125 L 1.148438 -2.78125 L 0.265625 -2.78125 Z "/>
</g>
<g id="glyph-0-1">
<path d="M 0.519531 -3.109375 L 2.300781 -3.109375 L 2.300781 -2.78125 L 0.890625 -2.78125 L 0.890625 -1.71875 L 2.214844 -1.71875 L 2.214844 -1.390625 L 0.890625 -1.390625 L 0.890625 0 L 0.519531 0 Z "/>
</g>
<g id="glyph-0-2">
<path d="M 0.179688 -3.109375 L 2.488281 -3.109375 L 2.488281 -2.296875 L 2.160156 -2.296875 L 2.160156 -2.78125 L 1.515625 -2.78125 L 1.515625 -0.328125 L 2.003906 -0.328125 L 2.003906 0 L 0.65625 0 L 0.65625 -0.328125 L 1.148438 -0.328125 L 1.148438 -2.78125 L 0.507812 -2.78125 L 0.507812 -2.296875 L 0.179688 -2.296875 Z "/>
</g>
</g>
</defs>
<g fill="rgb(18.431373%, 16.470588%, 14.901961%)" fill-opacity="1">
<use xlink:href="#glyph-0-0" x="30" y="23.933594"/>
<use xlink:href="#glyph-0-1" x="33" y="23.933594"/>
<use xlink:href="#glyph-0-2" x="36" y="23.933594"/>
</g>
</svg>
